<?xml version="1.0" encoding="UTF-8"?>
<svg id="Ebene_2" xmlns="http://www.w3.org/2000/svg" viewBox="0 0 205.39 205.04">
  <defs>
    <style>
      .cls-1 {
        fill: #41ffc9;
      }
    </style>
  </defs>
  <g id="Ebene_1-2" data-name="Ebene_1">
    <g>
      <path class="cls-1" d="M15.44,0l44,44h26.3s75.65,75.65,75.65,75.65v26.3s44,44,44,44V.3s-.3,0-.3,0V0s-189.65,0-189.65,0ZM115.44,44h45.95v45.95s-45.95-45.95-45.95-45.95Z"/>
      <path class="cls-1" d="M111.56,125.13l-44.59-10.04,28-5.02L0,15.09l.3,189.95h189.65s-78.39-79.91-78.39-79.91ZM60.85,100.9l-26.85,5.05v-31.91s26.85,26.86,26.85,26.86ZM98.74,153.78l25.26,25.26H34v-42.5s64.74,17.24,64.74,17.24Z"/>
    </g>
  </g>
</svg>